# xmcd CD database file generated by Grip 3.3.1
# 
# Track frame offsets:
#       150
#       17743
#       43219
#       62604
#       83859
#       96315
#       110680
#       129586
#       147471
#       168931
#       188583
#       201291
#       231757
#       246548
#       269622
#       304166
#       318809
# 
# Disc length: 4465 seconds
# 
# Revision: 4
# Processed by: cddbd v1.5.2PL0 Copyright (c) Steve Scherf et al.
# Submitted via: Grip 3.3.1
# 
DISCID=f8116f11
DTITLE=Various Artist - A Quiet Revolution - 30 Years Of Windham Hill -
DTITLE=Disc 1
DYEAR=2005
DGENRE=New Age
TTITLE0=William Ackerman - The Bricklayer's Beautiful Daughter
TTITLE1=Liz Story - Wedding Rain
TTITLE2=Mike Marshall and Darol Anger - Dolphins
TTITLE3=Michael Hedges - Aerial Boundaries
TTITLE4=George Winston - Cloudy This Morning
TTITLE5=Billy Oskay and Michael O Domhnaill - The 19A
TTITLE6=Alex de Grassi - Western
TTITLE7=Philip Aaberg - O, Shenandoah
TTITLE8=Pete Huttlinger - Flowers Of Edinburgh
TTITLE9=Shadowfax - Another Country
TTITLE10=Doyle Dykes - The Road Back Home
TTITLE11=Angels of Venice - After The Harvest
TTITLE12=Alex de Grassi - Inverness
TTITLE13=Tracy Silverman and Thea Suits Silverman - Callisto's Sky
TTITLE14=George Winston - Moon
TTITLE15=Nightnoise - Night In That Land
TTITLE16=William Ackerman - Three Obserevations Of One Ocean
EXTD=YEAR: 2005
EXTT0=
EXTT1=
EXTT2=
EXTT3=
EXTT4=
EXTT5=
EXTT6=
EXTT7=
EXTT8=
EXTT9=
EXTT10=
EXTT11=
EXTT12=
EXTT13=
EXTT14=
EXTT15=
EXTT16=
PLAYORDER=
